<mxfile host="app.diagrams.net" modified="2023-08-23T23:54:25.862Z" agent="Mozilla/5.0 (Windows NT 10.0; Win64; x64) AppleWebKit/537.36 (KHTML, like Gecko) Chrome/116.0.0.0 Safari/537.36" etag="ppWaYohy5yOecMFpueDQ" version="21.6.9" type="github">
  <diagram name="PÃ¡gina-1" id="MOPs5hklD3hS9nwp58-l">
    <mxGraphModel dx="1114" dy="610" grid="1" gridSize="10" guides="1" tooltips="1" connect="1" arrows="1" fold="1" page="1" pageScale="1" pageWidth="827" pageHeight="1169" math="0" shadow="0">
      <root>
        <mxCell id="0" />
        <mxCell id="1" parent="0" />
        <mxCell id="xXRMQNrWLwdI5nzP8Z8g-8" style="edgeStyle=orthogonalEdgeStyle;rounded=0;orthogonalLoop=1;jettySize=auto;html=1;exitX=1;exitY=0.5;exitDx=0;exitDy=0;" edge="1" parent="1" source="xXRMQNrWLwdI5nzP8Z8g-1" target="xXRMQNrWLwdI5nzP8Z8g-7">
          <mxGeometry relative="1" as="geometry" />
        </mxCell>
        <mxCell id="xXRMQNrWLwdI5nzP8Z8g-1" value="Aluno" style="whiteSpace=wrap;html=1;aspect=fixed;" vertex="1" parent="1">
          <mxGeometry x="80" y="140" width="80" height="80" as="geometry" />
        </mxCell>
        <mxCell id="xXRMQNrWLwdI5nzP8Z8g-2" value="Trabalho" style="whiteSpace=wrap;html=1;aspect=fixed;" vertex="1" parent="1">
          <mxGeometry x="570" y="140" width="80" height="80" as="geometry" />
        </mxCell>
        <mxCell id="xXRMQNrWLwdI5nzP8Z8g-9" style="edgeStyle=orthogonalEdgeStyle;rounded=0;orthogonalLoop=1;jettySize=auto;html=1;exitX=1;exitY=0.5;exitDx=0;exitDy=0;" edge="1" parent="1" source="xXRMQNrWLwdI5nzP8Z8g-4" target="xXRMQNrWLwdI5nzP8Z8g-2">
          <mxGeometry relative="1" as="geometry" />
        </mxCell>
        <mxCell id="xXRMQNrWLwdI5nzP8Z8g-4" value="" style="rhombus;whiteSpace=wrap;html=1;" vertex="1" parent="1">
          <mxGeometry x="304" y="140" width="110" height="80" as="geometry" />
        </mxCell>
        <mxCell id="xXRMQNrWLwdI5nzP8Z8g-7" value="Aluno_Trabalho" style="text;html=1;strokeColor=none;fillColor=none;align=center;verticalAlign=middle;whiteSpace=wrap;rounded=0;" vertex="1" parent="1">
          <mxGeometry x="329" y="165" width="60" height="30" as="geometry" />
        </mxCell>
        <mxCell id="xXRMQNrWLwdI5nzP8Z8g-12" value="(1,N)" style="text;html=1;strokeColor=none;fillColor=none;align=center;verticalAlign=middle;whiteSpace=wrap;rounded=0;" vertex="1" parent="1">
          <mxGeometry x="170" y="150" width="60" height="30" as="geometry" />
        </mxCell>
        <mxCell id="xXRMQNrWLwdI5nzP8Z8g-13" value="(1,N)" style="text;html=1;strokeColor=none;fillColor=none;align=center;verticalAlign=middle;whiteSpace=wrap;rounded=0;" vertex="1" parent="1">
          <mxGeometry x="510" y="150" width="60" height="30" as="geometry" />
        </mxCell>
        <mxCell id="xXRMQNrWLwdI5nzP8Z8g-25" style="edgeStyle=orthogonalEdgeStyle;rounded=0;orthogonalLoop=1;jettySize=auto;html=1;exitX=1;exitY=0.5;exitDx=0;exitDy=0;entryX=0.044;entryY=0.5;entryDx=0;entryDy=0;entryPerimeter=0;" edge="1" parent="1" source="xXRMQNrWLwdI5nzP8Z8g-14" target="xXRMQNrWLwdI5nzP8Z8g-16">
          <mxGeometry relative="1" as="geometry" />
        </mxCell>
        <mxCell id="xXRMQNrWLwdI5nzP8Z8g-14" value="" style="whiteSpace=wrap;html=1;aspect=fixed;" vertex="1" parent="1">
          <mxGeometry x="80" y="280" width="80" height="80" as="geometry" />
        </mxCell>
        <mxCell id="xXRMQNrWLwdI5nzP8Z8g-15" value="" style="whiteSpace=wrap;html=1;aspect=fixed;" vertex="1" parent="1">
          <mxGeometry x="570" y="280" width="80" height="80" as="geometry" />
        </mxCell>
        <mxCell id="xXRMQNrWLwdI5nzP8Z8g-27" style="edgeStyle=orthogonalEdgeStyle;rounded=0;orthogonalLoop=1;jettySize=auto;html=1;exitX=1;exitY=0.5;exitDx=0;exitDy=0;entryX=0;entryY=0.5;entryDx=0;entryDy=0;" edge="1" parent="1" source="xXRMQNrWLwdI5nzP8Z8g-16" target="xXRMQNrWLwdI5nzP8Z8g-15">
          <mxGeometry relative="1" as="geometry" />
        </mxCell>
        <mxCell id="xXRMQNrWLwdI5nzP8Z8g-16" value="" style="rhombus;whiteSpace=wrap;html=1;" vertex="1" parent="1">
          <mxGeometry x="280" y="280" width="160" height="80" as="geometry" />
        </mxCell>
        <mxCell id="xXRMQNrWLwdI5nzP8Z8g-17" value="Diretor" style="text;html=1;strokeColor=none;fillColor=none;align=center;verticalAlign=middle;whiteSpace=wrap;rounded=0;" vertex="1" parent="1">
          <mxGeometry x="90" y="305" width="60" height="30" as="geometry" />
        </mxCell>
        <mxCell id="xXRMQNrWLwdI5nzP8Z8g-18" value="Departamento" style="text;html=1;strokeColor=none;fillColor=none;align=center;verticalAlign=middle;whiteSpace=wrap;rounded=0;" vertex="1" parent="1">
          <mxGeometry x="580" y="305" width="60" height="30" as="geometry" />
        </mxCell>
        <mxCell id="xXRMQNrWLwdI5nzP8Z8g-19" value="Diretor_Departamento" style="text;html=1;strokeColor=none;fillColor=none;align=center;verticalAlign=middle;whiteSpace=wrap;rounded=0;" vertex="1" parent="1">
          <mxGeometry x="329" y="305" width="60" height="30" as="geometry" />
        </mxCell>
        <mxCell id="xXRMQNrWLwdI5nzP8Z8g-28" value="(1,1)" style="text;html=1;strokeColor=none;fillColor=none;align=center;verticalAlign=middle;whiteSpace=wrap;rounded=0;" vertex="1" parent="1">
          <mxGeometry x="169" y="280" width="60" height="30" as="geometry" />
        </mxCell>
        <mxCell id="xXRMQNrWLwdI5nzP8Z8g-30" value="(1,1)" style="text;html=1;strokeColor=none;fillColor=none;align=center;verticalAlign=middle;whiteSpace=wrap;rounded=0;" vertex="1" parent="1">
          <mxGeometry x="510" y="280" width="60" height="30" as="geometry" />
        </mxCell>
        <mxCell id="xXRMQNrWLwdI5nzP8Z8g-40" style="edgeStyle=orthogonalEdgeStyle;rounded=0;orthogonalLoop=1;jettySize=auto;html=1;exitX=1;exitY=0.5;exitDx=0;exitDy=0;entryX=0.053;entryY=0.5;entryDx=0;entryDy=0;entryPerimeter=0;" edge="1" parent="1" source="xXRMQNrWLwdI5nzP8Z8g-31" target="xXRMQNrWLwdI5nzP8Z8g-33">
          <mxGeometry relative="1" as="geometry" />
        </mxCell>
        <mxCell id="xXRMQNrWLwdI5nzP8Z8g-31" value="" style="whiteSpace=wrap;html=1;aspect=fixed;" vertex="1" parent="1">
          <mxGeometry x="80" y="430" width="80" height="80" as="geometry" />
        </mxCell>
        <mxCell id="xXRMQNrWLwdI5nzP8Z8g-32" value="" style="whiteSpace=wrap;html=1;aspect=fixed;" vertex="1" parent="1">
          <mxGeometry x="560" y="430" width="80" height="80" as="geometry" />
        </mxCell>
        <mxCell id="xXRMQNrWLwdI5nzP8Z8g-39" style="edgeStyle=orthogonalEdgeStyle;rounded=0;orthogonalLoop=1;jettySize=auto;html=1;exitX=1;exitY=0.5;exitDx=0;exitDy=0;entryX=0;entryY=0.5;entryDx=0;entryDy=0;" edge="1" parent="1" source="xXRMQNrWLwdI5nzP8Z8g-33" target="xXRMQNrWLwdI5nzP8Z8g-32">
          <mxGeometry relative="1" as="geometry" />
        </mxCell>
        <mxCell id="xXRMQNrWLwdI5nzP8Z8g-33" value="" style="rhombus;whiteSpace=wrap;html=1;" vertex="1" parent="1">
          <mxGeometry x="274" y="430" width="170" height="80" as="geometry" />
        </mxCell>
        <mxCell id="xXRMQNrWLwdI5nzP8Z8g-34" value="Autor" style="text;html=1;strokeColor=none;fillColor=none;align=center;verticalAlign=middle;whiteSpace=wrap;rounded=0;" vertex="1" parent="1">
          <mxGeometry x="90" y="455" width="60" height="30" as="geometry" />
        </mxCell>
        <mxCell id="xXRMQNrWLwdI5nzP8Z8g-35" value="Livros" style="text;html=1;strokeColor=none;fillColor=none;align=center;verticalAlign=middle;whiteSpace=wrap;rounded=0;" vertex="1" parent="1">
          <mxGeometry x="570" y="455" width="60" height="30" as="geometry" />
        </mxCell>
        <mxCell id="xXRMQNrWLwdI5nzP8Z8g-36" value="Autor_Livros" style="text;html=1;strokeColor=none;fillColor=none;align=center;verticalAlign=middle;whiteSpace=wrap;rounded=0;" vertex="1" parent="1">
          <mxGeometry x="330" y="455" width="60" height="30" as="geometry" />
        </mxCell>
        <mxCell id="xXRMQNrWLwdI5nzP8Z8g-41" value="(1,N)" style="text;html=1;strokeColor=none;fillColor=none;align=center;verticalAlign=middle;whiteSpace=wrap;rounded=0;" vertex="1" parent="1">
          <mxGeometry x="170" y="430" width="60" height="30" as="geometry" />
        </mxCell>
        <mxCell id="xXRMQNrWLwdI5nzP8Z8g-42" value="(1,N)" style="text;html=1;strokeColor=none;fillColor=none;align=center;verticalAlign=middle;whiteSpace=wrap;rounded=0;" vertex="1" parent="1">
          <mxGeometry x="510" y="430" width="60" height="30" as="geometry" />
        </mxCell>
        <mxCell id="xXRMQNrWLwdI5nzP8Z8g-49" style="edgeStyle=orthogonalEdgeStyle;rounded=0;orthogonalLoop=1;jettySize=auto;html=1;exitX=1;exitY=0.5;exitDx=0;exitDy=0;entryX=0.1;entryY=0.5;entryDx=0;entryDy=0;entryPerimeter=0;" edge="1" parent="1" source="xXRMQNrWLwdI5nzP8Z8g-43" target="xXRMQNrWLwdI5nzP8Z8g-45">
          <mxGeometry relative="1" as="geometry" />
        </mxCell>
        <mxCell id="xXRMQNrWLwdI5nzP8Z8g-43" value="" style="whiteSpace=wrap;html=1;aspect=fixed;" vertex="1" parent="1">
          <mxGeometry x="80" y="560" width="80" height="80" as="geometry" />
        </mxCell>
        <mxCell id="xXRMQNrWLwdI5nzP8Z8g-44" value="" style="whiteSpace=wrap;html=1;aspect=fixed;" vertex="1" parent="1">
          <mxGeometry x="560" y="560" width="80" height="80" as="geometry" />
        </mxCell>
        <mxCell id="xXRMQNrWLwdI5nzP8Z8g-50" style="edgeStyle=orthogonalEdgeStyle;rounded=0;orthogonalLoop=1;jettySize=auto;html=1;exitX=1;exitY=0.5;exitDx=0;exitDy=0;entryX=0;entryY=0.5;entryDx=0;entryDy=0;" edge="1" parent="1" source="xXRMQNrWLwdI5nzP8Z8g-45" target="xXRMQNrWLwdI5nzP8Z8g-44">
          <mxGeometry relative="1" as="geometry" />
        </mxCell>
        <mxCell id="xXRMQNrWLwdI5nzP8Z8g-45" value="" style="rhombus;whiteSpace=wrap;html=1;" vertex="1" parent="1">
          <mxGeometry x="285" y="560" width="150" height="80" as="geometry" />
        </mxCell>
        <mxCell id="xXRMQNrWLwdI5nzP8Z8g-46" value="Equipe" style="text;html=1;strokeColor=none;fillColor=none;align=center;verticalAlign=middle;whiteSpace=wrap;rounded=0;" vertex="1" parent="1">
          <mxGeometry x="90" y="590" width="60" height="30" as="geometry" />
        </mxCell>
        <mxCell id="xXRMQNrWLwdI5nzP8Z8g-47" value="Jogadores" style="text;html=1;strokeColor=none;fillColor=none;align=center;verticalAlign=middle;whiteSpace=wrap;rounded=0;" vertex="1" parent="1">
          <mxGeometry x="570" y="590" width="60" height="30" as="geometry" />
        </mxCell>
        <mxCell id="xXRMQNrWLwdI5nzP8Z8g-48" value="Equipe_Jogadores" style="text;html=1;strokeColor=none;fillColor=none;align=center;verticalAlign=middle;whiteSpace=wrap;rounded=0;" vertex="1" parent="1">
          <mxGeometry x="330" y="590" width="60" height="30" as="geometry" />
        </mxCell>
        <mxCell id="xXRMQNrWLwdI5nzP8Z8g-64" style="edgeStyle=orthogonalEdgeStyle;rounded=0;orthogonalLoop=1;jettySize=auto;html=1;exitX=1;exitY=0.5;exitDx=0;exitDy=0;entryX=0;entryY=0.5;entryDx=0;entryDy=0;" edge="1" parent="1" source="xXRMQNrWLwdI5nzP8Z8g-51" target="xXRMQNrWLwdI5nzP8Z8g-53">
          <mxGeometry relative="1" as="geometry" />
        </mxCell>
        <mxCell id="xXRMQNrWLwdI5nzP8Z8g-51" value="" style="whiteSpace=wrap;html=1;aspect=fixed;" vertex="1" parent="1">
          <mxGeometry x="80" y="700" width="80" height="80" as="geometry" />
        </mxCell>
        <mxCell id="xXRMQNrWLwdI5nzP8Z8g-52" value="" style="whiteSpace=wrap;html=1;aspect=fixed;" vertex="1" parent="1">
          <mxGeometry x="560" y="700" width="80" height="80" as="geometry" />
        </mxCell>
        <mxCell id="xXRMQNrWLwdI5nzP8Z8g-65" style="edgeStyle=orthogonalEdgeStyle;rounded=0;orthogonalLoop=1;jettySize=auto;html=1;exitX=1;exitY=0.5;exitDx=0;exitDy=0;entryX=0;entryY=0.5;entryDx=0;entryDy=0;" edge="1" parent="1" source="xXRMQNrWLwdI5nzP8Z8g-53" target="xXRMQNrWLwdI5nzP8Z8g-52">
          <mxGeometry relative="1" as="geometry" />
        </mxCell>
        <mxCell id="xXRMQNrWLwdI5nzP8Z8g-53" value="" style="rhombus;whiteSpace=wrap;html=1;" vertex="1" parent="1">
          <mxGeometry x="296" y="700" width="126" height="80" as="geometry" />
        </mxCell>
        <mxCell id="xXRMQNrWLwdI5nzP8Z8g-54" value="Cliente" style="text;html=1;strokeColor=none;fillColor=none;align=center;verticalAlign=middle;whiteSpace=wrap;rounded=0;" vertex="1" parent="1">
          <mxGeometry x="90" y="725" width="60" height="30" as="geometry" />
        </mxCell>
        <mxCell id="xXRMQNrWLwdI5nzP8Z8g-55" value="(1,1)" style="text;html=1;strokeColor=none;fillColor=none;align=center;verticalAlign=middle;whiteSpace=wrap;rounded=0;" vertex="1" parent="1">
          <mxGeometry x="500" y="560" width="60" height="30" as="geometry" />
        </mxCell>
        <mxCell id="xXRMQNrWLwdI5nzP8Z8g-56" value="Encomendas" style="text;html=1;strokeColor=none;fillColor=none;align=center;verticalAlign=middle;whiteSpace=wrap;rounded=0;" vertex="1" parent="1">
          <mxGeometry x="570" y="720" width="60" height="30" as="geometry" />
        </mxCell>
        <mxCell id="xXRMQNrWLwdI5nzP8Z8g-57" value="Cliente_Encomenda" style="text;html=1;strokeColor=none;fillColor=none;align=center;verticalAlign=middle;whiteSpace=wrap;rounded=0;" vertex="1" parent="1">
          <mxGeometry x="329" y="725" width="60" height="30" as="geometry" />
        </mxCell>
        <mxCell id="xXRMQNrWLwdI5nzP8Z8g-58" value="(1,N)" style="text;html=1;strokeColor=none;fillColor=none;align=center;verticalAlign=middle;whiteSpace=wrap;rounded=0;" vertex="1" parent="1">
          <mxGeometry x="160" y="560" width="60" height="30" as="geometry" />
        </mxCell>
        <mxCell id="xXRMQNrWLwdI5nzP8Z8g-59" value="(1,1)" style="text;html=1;strokeColor=none;fillColor=none;align=center;verticalAlign=middle;whiteSpace=wrap;rounded=0;" vertex="1" parent="1">
          <mxGeometry x="160" y="690" width="60" height="30" as="geometry" />
        </mxCell>
        <mxCell id="xXRMQNrWLwdI5nzP8Z8g-68" value="(1,N)" style="text;html=1;strokeColor=none;fillColor=none;align=center;verticalAlign=middle;whiteSpace=wrap;rounded=0;" vertex="1" parent="1">
          <mxGeometry x="500" y="690" width="60" height="30" as="geometry" />
        </mxCell>
      </root>
    </mxGraphModel>
  </diagram>
</mxfile>
